<svg clip-rule="evenodd" fill-rule="evenodd" stroke-linejoin="round" stroke-miterlimit="2" viewBox="0 0 24 24" width="24" xmlns="http://www.w3.org/2000/svg">
	<g id="Icon">
		<path d="m7.97 12.53c-.293-.292-.293-.768 0-1.06.292-.293.768-.293 1.06 0l1.803 1.803 4.137-4.137c.292-.292.768-.292 1.06 0 .293.293.293.768 0 1.061l-4.666 4.667c-.293.293-.768.293-1.061 0z" />
		<path d="m10.732 1.775c.336-.336.792-.525 1.268-.525s.932.189 1.268.525l1.445 1.445c.066.066.16.097.253.082l2.018-.319c.47-.075.95.041 1.335.32.384.28.642.701.717 1.17l.319 2.018c.015.093.073.173.157.216l1.82.927c.424.216.745.592.892 1.044s.108.945-.108 1.368l-.927 1.821c-.043.084-.043.182 0 .266l.927 1.821c.216.423.255.916.108 1.368s-.468.828-.892 1.044l-1.82.927c-.084.043-.142.123-.157.216l-.319 2.018c-.075.469-.333.89-.717 1.17-.385.279-.865.395-1.335.32l-2.018-.319c-.093-.015-.187.016-.253.082l-1.445 1.445c-.336.336-.792.525-1.268.525s-.932-.189-1.268-.525l-1.445-1.445c-.066-.066-.16-.097-.253-.082l-2.018.319c-.47.075-.95-.041-1.335-.32-.384-.28-.642-.701-.717-1.17l-.319-2.018c-.015-.093-.073-.173-.157-.216l-1.82-.927c-.424-.216-.745-.592-.892-1.044s-.108-.945.108-1.368l.927-1.821c.043-.084.043-.182 0-.266l-.927-1.821c-.216-.423-.255-.916-.108-1.368s.468-.828.892-1.044l1.82-.927c.084-.043.142-.123.157-.216l.319-2.018c.075-.469.333-.89.717-1.17.385-.279.865-.395 1.335-.32l2.018.319c.093.015.187-.016.253-.082zm1.061 1.061-1.445 1.445c-.406.406-.982.593-1.549.503l-2.018-.32c-.077-.012-.155.007-.218.053-.063.045-.105.114-.117.191l-.32 2.018c-.09.567-.445 1.057-.957 1.317l-1.821.928c-.069.035-.121.097-.145.171s-.018.154.017.223l.928 1.821c.261.511.261 1.117 0 1.628l-.928 1.821c-.035.069-.041.149-.017.223s.076.136.145.171l1.821.928c.512.26.867.75.957 1.317l.32 2.018c.012.077.054.146.117.191.063.046.141.065.218.053l2.018-.32c.567-.09 1.143.097 1.549.503l1.445 1.445c.055.055.129.086.207.086s.152-.031.207-.086l1.445-1.445c.406-.406.982-.593 1.549-.503l2.018.32c.077.012.155-.007.218-.053.063-.045.105-.114.117-.191l.32-2.018c.09-.567.445-1.057.957-1.317l1.821-.928c.069-.035.121-.097.145-.171s.018-.154-.017-.223l-.928-1.821c-.261-.511-.261-1.117 0-1.628l.928-1.821c.035-.069.041-.149.017-.223s-.076-.136-.145-.171l-1.821-.928c-.512-.26-.867-.75-.957-1.317l-.32-2.018c-.012-.077-.054-.146-.117-.191-.063-.046-.141-.065-.218-.053l-2.018.32c-.567.09-1.143-.097-1.549-.503l-1.445-1.445c-.055-.055-.129-.086-.207-.086s-.152.031-.207.086z" />
	</g>
</svg>
