<svg id="Layer_1" enable-background="new 0 0 24 24" viewBox="0 0 24 24" width="24" xmlns="http://www.w3.org/2000/svg">
	<g>
		<path d="m10 18h-6c-.6 0-1-.4-1-1s.4-1 1-1h6c.6 0 1 .4 1 1s-.4 1-1 1z" />
	</g>
	<g>
		<path d="m13 13h-9c-.6 0-1-.4-1-1s.4-1 1-1h9c.6 0 1 .4 1 1s-.4 1-1 1z" />
	</g>
	<g>
		<path d="m18 20c-.6 0-1-.4-1-1v-8c0-.6.4-1 1-1s1 .4 1 1v8c0 .6-.4 1-1 1z" />
	</g>
	<g>
		<path d="m18 20c-.3 0-.5-.1-.7-.3l-3-3c-.4-.4-.4-1 0-1.4s1-.4 1.4 0l2.3 2.3 2.3-2.3c.4-.4 1-.4 1.4 0s.4 1 0 1.4l-3 3c-.2.2-.4.3-.7.3z" />
	</g>
	<g>
		<path d="m16 8h-12c-.6 0-1-.4-1-1s.4-1 1-1h12c.6 0 1 .4 1 1s-.4 1-1 1z" />
	</g>
</svg>
