<svg viewBox="0 0 24 24" width="24" xmlns="http://www.w3.org/2000/svg">
	<g id="Layer_2" data-name="Layer 2">
		<path d="m6.739 21.95a5.749 5.749 0 0 1 -4.065-9.816l8.485-8.486a.75.75 0 1 1 1.061 1.061l-8.486 8.485a4.25 4.25 0 1 0 6.011 6.006l10.96-10.96a2.751 2.751 0 0 0 -3.89-3.89l-8.838 8.844a1.25 1.25 0 1 0 1.768 1.768l5.655-5.656a.75.75 0 1 1 1.061 1.06l-5.656 5.657a2.75 2.75 0 0 1 -3.89-3.889l8.84-8.834a4.25 4.25 0 1 1 6.011 6.01l-10.96 10.956a5.715 5.715 0 0 1 -4.067 1.684z" />
	</g>
</svg>
