<svg enable-background="new 0 0 100 100" viewBox="0 0 100 100" width="24" xmlns="http://www.w3.org/2000/svg">
	<g>
		<path d="m93.879303 26.3238945h-87.7462979c-1.9950728 0-3.633004-1.6133003-3.633004-3.6083736s1.6379311-3.6083736 3.633004-3.6083736h87.7462979c1.9950638 0 3.6083755 1.6133003 3.6083755 3.6083736s-1.6009903 3.6083736-3.6083755 3.6083736z" />
		<path d="m93.879303 53.6022186h-87.7462979c-1.9950728 0-3.620688-1.6133003-3.620688-3.6083755s1.6379309-3.6083755 3.6330037-3.6083755h87.7463074c1.9950638 0 3.6083755 1.6133003 3.6083755 3.6083755s-1.6133155 3.6083755-3.6207007 3.6083755z" />
		<path d="m93.879303 80.8928528h-87.7462979c-1.9950728 0-3.633004-1.6133041-3.633004-3.6083755 0-1.995079 1.6379311-3.6083755 3.633004-3.6083755h87.7462979c1.9950638 0 3.6083755 1.6132965 3.6083755 3.6083755 0 1.9950713-1.6009903 3.6083755-3.6083755 3.6083755z" />
	</g>
</svg>
