<svg id="Layer_1" enable-background="new 0 0 34 34" viewBox="0 0 34 34" width="2" xmlns="http://www.w3.org/2000/svg">
	<g>
		<path d="m8 1c-.5 0-1 .4-1 1v1h-3c-1.6 0-3 1.3-3 3v4 20c0 1.7 1.3 3 3 3h26c1.7 0 3-1.3 3-3v-20-4c0-1.7-1.3-3-3-3h-3v-1c0-.6-.4-1-1-1s-1 .4-1 1v1h-16v-1c0-.6-.4-1-1-1zm23 29c0 .6-.4 1-1 1h-26c-.6 0-1-.4-1-1v-19h28zm-6-25v1c0 .6.4 1 1 1s1-.4 1-1v-1h3c.6 0 1 .4 1 1v3h-28v-3c0-.6.4-1 1-1h3v1c0 .6.4 1 1 1s1-.4 1-1v-1z" />
		<path d="m7.1 19.5h4c.6 0 1-.4 1-1v-4c0-.6-.4-1-1-1h-4c-.6 0-1 .4-1 1v4c0 .6.4 1 1 1zm1-4h2v2h-2z" />
		<path d="m15.1 19.5h4c.6 0 1-.4 1-1v-4c0-.6-.4-1-1-1h-4c-.6 0-1 .4-1 1v4c0 .6.4 1 1 1zm1-4h2v2h-2z" />
		<path d="m23.1 19.5h4c.6 0 1-.4 1-1v-4c0-.6-.4-1-1-1h-4c-.6 0-1 .4-1 1v4c0 .6.4 1 1 1zm1-4h2v2h-2z" />
		<path d="m7.1 28.5h4c.6 0 1-.4 1-1v-4c0-.6-.4-1-1-1h-4c-.6 0-1 .4-1 1v4c0 .6.4 1 1 1zm1-4h2v2h-2z" />
		<path d="m15.1 28.5h4c.6 0 1-.4 1-1v-4c0-.6-.4-1-1-1h-4c-.6 0-1 .4-1 1v4c0 .6.4 1 1 1zm1-4h2v2h-2z" />
		<path d="m23.1 28.5h4c.6 0 1-.4 1-1v-4c0-.6-.4-1-1-1h-4c-.6 0-1 .4-1 1v4c0 .6.4 1 1 1zm1-4h2v2h-2z" />
	</g>
</svg>
