<svg clip-rule="evenodd" fill-rule="evenodd" stroke-linejoin="round" stroke-miterlimit="2" viewBox="0 0 24 24" width="24" xmlns="http://www.w3.org/2000/svg">
	<g id="Icon">
		<path d="m20.75 20c0 .729-.29 1.429-.805 1.945-.516.515-1.216.805-1.945.805h-12c-.729 0-1.429-.29-1.945-.805-.515-.516-.805-1.216-.805-1.945v-16c0-.729.29-1.429.805-1.945.516-.515 1.216-.805 1.945-.805h8.586c.464 0 .909.184 1.237.513l4.414 4.414c.329.328.513.773.513 1.237zm-1.5 0v-12.586c0-.066-.026-.13-.073-.177l-4.414-4.414c-.047-.047-.111-.073-.177-.073h-8.586c-.332 0-.649.132-.884.366-.234.235-.366.552-.366.884v16c0 .332.132.649.366.884.235.234.552.366.884.366h12c.332 0 .649-.132.884-.366.234-.235.366-.552.366-.884z" />
		<path d="m14.25 2.5c0-.414.336-.75.75-.75s.75.336.75.75v3.5c0 .138.112.25.25.25h3.5c.414 0 .75.336.75.75s-.336.75-.75.75h-3.5c-.967 0-1.75-.783-1.75-1.75z" />
		<path d="m8 11.25c-.414 0-.75-.336-.75-.75s.336-.75.75-.75h8c.414 0 .75.336.75.75s-.336.75-.75.75z" />
		<path d="m8 14.75c-.414 0-.75-.336-.75-.75s.336-.75.75-.75h8c.414 0 .75.336.75.75s-.336.75-.75.75z" />
		<path d="m8 18.25c-.414 0-.75-.336-.75-.75s.336-.75.75-.75h4.5c.414 0 .75.336.75.75s-.336.75-.75.75z" />
	</g>
</svg>
