<svg viewBox="0 0 24 24" xmlns="http://www.w3.org/2000/svg" width="24">
	<path d="m18.54 3.25h-13.08c-1.22 0-2.21.99-2.21 2.21 0 .53.19 1.04.53 1.44l5.17 6.03c.19.23.3.52.3.81v5.64c0 .61.31 1.17.83 1.49.28.17.6.26.92.26.27 0 .53-.06.78-.19l2-1c.6-.3.97-.9.97-1.57v-4.64c0-.3.11-.59.3-.81l5.17-6.03c.34-.4.53-.91.53-1.44 0-1.22-.99-2.21-2.21-2.21zm.54 2.67-5.17 6.03c-.43.5-.66 1.13-.66 1.79v4.64c0 .1-.05.18-.14.22l-2 1c-.11.06-.2.02-.24-.01s-.12-.09-.12-.21v-5.64c0-.66-.23-1.29-.66-1.79l-5.17-6.03c-.11-.13-.17-.29-.17-.46 0-.39.32-.71.71-.71h13.08c.39 0 .71.32.71.71 0 .17-.06.33-.17.46z" />
</svg>
