<svg id="Layer_1_copy" viewBox="0 0 64 64" xmlns="http://www.w3.org/2000/svg" width="24">
	<path d="m45.40276 34.459a3.69394 3.69394 0 0 1 4.189-.73981c.07-.69985.11-1.40964.11-2.11949a20.05385 20.05385 0 0 0 -20.02521-20.02526c-17.15764-.11631-26.45155 20.79586-14.84612 33.42217 3.44931-10.9513 18.10431-14.4504 26.04345-6.00869zm-15.72621-.94978a9.23538 9.23538 0 0 1 -9.22777-9.21777c.497-12.23852 17.96048-12.235 18.45554.00006a9.23533 9.23533 0 0 1 -9.22777 9.21768z" />
	<path d="m29.67667 17.06317c-9.55844.34056-9.57126 14.102-.00012 14.44649 9.5732-.33766 9.55899-14.11325.00012-14.44649z" />
	<path d="m59.69939 46.33613c-3.01582-3.01283-7.45812-7.46025-10.46753-10.46746a1.70754 1.70754 0 0 0 -2.4194 0c-1.81213 1.81176-8.79135 8.79159-10.46753 10.46746a1.00055 1.00055 0 0 0 1.41977 1.40964l.76971-.76978v9.81766a.99631.99631 0 0 0 .99976.99976h16.976a.99006.99006 0 0 0 .99976-.99976v-9.81765l.76977.76984a1.00057 1.00057 0 0 0 1.41969-1.40971z" />
	<path d="m39.46424 40.39773c-7.2407-7.69292-20.60633-4.01631-23.02451 6.20836a19.96182 19.96182 0 0 0 20.09516 3.78907v-.39987a3.01585 3.01585 0 0 1 -1.59953-5.06886z" />
	<path d="m36.535 52.50445c-13.97919 4.80775-29.01642-6.14873-28.87326-20.90466 1.31548-31.65123 47.58589-27.42538 43.73977 3.60949l3.06909 3.06878c8.16198-37.31735-48.51524-45.27986-50.4679-6.67784-.24744 16.69528 16.54475 29.3906 32.53243 24.75329z" />
</svg>
