<svg id="Layer_1" enable-background="new 0 0 24 24" viewBox="0 0 24 24" width="24" xmlns="http://www.w3.org/2000/svg">
	<g>
		<path d="m10 5h-6c-.6 0-1-.4-1-1s.4-1 1-1h6c.6 0 1 .4 1 1s-.4 1-1 1z" />
	</g>
	<g>
		<path d="m20 5h-6c-.6 0-1-.4-1-1s.4-1 1-1h6c.6 0 1 .4 1 1s-.4 1-1 1z" />
	</g>
	<g>
		<path d="m8 21h-2c-1.7 0-3-1.3-3-3v-8c0-1.7 1.3-3 3-3h2c1.7 0 3 1.3 3 3v8c0 1.7-1.3 3-3 3zm-2-12c-.6 0-1 .4-1 1v8c0 .6.4 1 1 1h2c.6 0 1-.4 1-1v-8c0-.6-.4-1-1-1z" />
	</g>
	<g>
		<path d="m18 15h-2c-1.7 0-3-1.3-3-3v-2c0-1.7 1.3-3 3-3h2c1.7 0 3 1.3 3 3v2c0 1.7-1.3 3-3 3zm-2-6c-.6 0-1 .4-1 1v2c0 .6.4 1 1 1h2c.6 0 1-.4 1-1v-2c0-.6-.4-1-1-1z" />
	</g>
</svg>
