<svg viewBox="0 0 24 24" width="24" xmlns="http://www.w3.org/2000/svg">
	<g id="Layer_2" data-name="Layer 2">
		<path d="m8 11h-4a3 3 0 0 1 -3-3v-4a3 3 0 0 1 3-3h4a3 3 0 0 1 3 3v4a3 3 0 0 1 -3 3zm-4-8a1 1 0 0 0 -1 1v4a1 1 0 0 0 1 1h4a1 1 0 0 0 1-1v-4a1 1 0 0 0 -1-1z" />
		<path d="m20 11h-4a3 3 0 0 1 -3-3v-4a3 3 0 0 1 3-3h4a3 3 0 0 1 3 3v4a3 3 0 0 1 -3 3zm-4-8a1 1 0 0 0 -1 1v4a1 1 0 0 0 1 1h4a1 1 0 0 0 1-1v-4a1 1 0 0 0 -1-1z" />
		<path d="m8 23h-4a3 3 0 0 1 -3-3v-4a3 3 0 0 1 3-3h4a3 3 0 0 1 3 3v4a3 3 0 0 1 -3 3zm-4-8a1 1 0 0 0 -1 1v4a1 1 0 0 0 1 1h4a1 1 0 0 0 1-1v-4a1 1 0 0 0 -1-1z" />
		<path d="m18 23a5 5 0 1 1 5-5 5 5 0 0 1 -5 5zm0-8a3 3 0 1 0 3 3 3 3 0 0 0 -3-3z" />
		<rect height="8" rx="2" width="8" x="2" y="2" />
		<rect height="8" rx="2" width="8" x="14" y="2" />
		<rect height="8" rx="2" width="8" x="2" y="14" />
	</g>
</svg>
