<svg id="Layer_2" viewBox="0 0 512 512" width="24" xmlns="http://www.w3.org/2000/svg" data-name="Layer 2">
	<g id="Icon">
		<path id="_39" d="m362 0h-212c-82.84 0-150 67.16-150 150v212c0 82.84 67.16 150 150 150h212c82.84 0 150-67.16 150-150v-212c0-82.84-67.16-150-150-150zm39 256c0 13.81-11.19 25-25 25h-95v95c0 13.81-11.19 25-25 25-13.81 0-25-11.19-25-25v-95h-95c-13.81 0-25-11.19-25-25 0-13.81 11.19-25 25-25h95v-95c0-13.81 11.19-25 25-25 13.81 0 25 11.19 25 25v95h95c13.81 0 25 11.19 25 25z" data-name="39" />
	</g>
</svg>
