<svg id="Layer_1" viewBox="0 0 512 512" width="24" xmlns="http://www.w3.org/2000/svg" data-name="Layer 1">
	<path d="m121.569 211.133a48.284 48.284 0 0 0 -34.45 46.224v12.708l-84.638-73.214a7.161 7.161 0 0 1 -.728-10.113l144.5-167.119a7.163 7.163 0 0 1 10.114-.729l39.843 34.45-101.746 46.37a21.634 21.634 0 0 0 -10.664 28.59zm-24.657-88.806 39.58 86.8h55.434a43.749 43.749 0 0 1 6.82.553v-115.741a21.605 21.605 0 0 1 21.6-21.6h112.354l-21.745-47.62a7.167 7.167 0 0 0 -9.5-3.555l-201.016 91.661a7.158 7.158 0 0 0 -3.527 9.502zm299.818 21.83h47.536l-53.219-53.191v47.507a5.723 5.723 0 0 0 5.683 5.684zm-20.052-57.417v51.733a20.05 20.05 0 0 0 20.052 20.081h51.733v97.608a68.243 68.243 0 0 0 -30.282 12.008h-146.193a5.633 5.633 0 0 1 -.729-.379 46.007 46.007 0 0 1 -6.586-5.8l-6.54-6.383h147.836a7.2 7.2 0 1 0 0-14.4h-150.331a7.216 7.216 0 0 0 -6.914 5.214l-19.288-18.822a82.838 82.838 0 0 0 -13.844-11.454c-.816-.5-1.632-.962-2.448-1.428v-120.779a7.214 7.214 0 0 1 7.2-7.2zm-128.239 56.63a7.2 7.2 0 0 0 7.2 7.2h95.217a7.2 7.2 0 0 0 0-14.4h-95.218a7.214 7.214 0 0 0 -7.199 7.2zm164.729 70.036a7.2 7.2 0 0 0 -7.2-7.2h-150.33a7.2 7.2 0 0 0 0 14.4h150.331a7.2 7.2 0 0 0 7.199-7.2zm-157.53-42.2a7.2 7.2 0 1 0 0 14.4h150.331a7.2 7.2 0 1 0 0-14.4zm256.362 152.865a54.132 54.132 0 1 1 -15.855-38.3 54.01 54.01 0 0 1 15.855 38.3zm-17.487-27.193a7.16 7.16 0 0 0 -10.172 0l-39.171 39.142-13.786-13.814a7.2 7.2 0 0 0 -10.172 10.2l18.888 18.886a7.21 7.21 0 0 0 10.171 0l44.243-44.242a7.213 7.213 0 0 0 -.001-10.172zm-36.665 95.743a69.042 69.042 0 0 0 23.258-4.022v66.684a39.7 39.7 0 0 1 -39.606 39.579h-300.374a39.7 39.7 0 0 1 -39.609-39.579v-197.926a33.885 33.885 0 0 1 33.809-33.838h56.6a29.343 29.343 0 0 1 16 4.839 67.46 67.46 0 0 1 11.454 9.53l35.237 34.421a58.734 58.734 0 0 0 9 7.665 15.458 15.458 0 0 0 8.423 2.594h131.277a68.538 68.538 0 0 0 54.531 110.053zm-310.6.932a7.2 7.2 0 0 0 7.2 7.2h70.182a7.2 7.2 0 0 0 0-14.4h-70.185a7.177 7.177 0 0 0 -7.199 7.2zm288.131 49.2a7.2 7.2 0 0 0 -7.2-7.2h-273.734a7.184 7.184 0 1 0 0 14.368h273.733a7.19 7.19 0 0 0 7.199-7.171z" />
</svg>
