<svg id="Layer_1" viewBox="0 0 512 512" xmlns="http://www.w3.org/2000/svg" data-name="Layer 1">
	<path d="m172.055 287.331a22.2 22.2 0 0 1 30.951-31.82l32.077 31.547 73.733-73.4a22.045 22.045 0 0 1 15.657-6.466h.071a21.984 21.984 0 0 1 15.649 6.542 22.258 22.258 0 0 1 -.075 31.395l-89.253 88.763a22.265 22.265 0 0 1 -31.128.172zm243.2-172.814a223.7 223.7 0 0 0 -155.255-65.936v-31.581a4 4 0 0 0 -6.644-3l-61.056 53.794a4 4 0 0 0 0 6l61.058 53.764a4 4 0 0 0 6.643-3v-31.471c97.814 2.137 176.731 82.369 176.731 180.686-.001 99.655-81.077 180.727-180.732 180.727-99.671 0-180.759-81.076-180.759-180.731a179.548 179.548 0 0 1 52.939-127.788 4 4 0 0 0 0-5.655l-25.772-25.8a4 4 0 0 0 -2.828-1.173 4 4 0 0 0 -2.828 1.171 225.218 225.218 0 1 0 318.505 318.506 225.214 225.214 0 0 0 0-318.513z" />
</svg>
