<?xml version="1.0" encoding="UTF-8"?>
<svg xmlns="http://www.w3.org/2000/svg" xmlns:xlink="http://www.w3.org/1999/xlink" version="1.1" id="Capa_1" x="0px" y="0px" viewBox="0 0 512 512" style="enable-background:new 0 0 512 512;" xml:space="preserve" width="24">
	<g>
		<path d="M301.176,316.235h165.647c8.317,0,15.059,6.742,15.059,15.059v60.235c0,8.317-6.742,15.059-15.059,15.059H301.176   c-8.317,0-15.059-6.742-15.059-15.059v-60.235C286.118,322.977,292.86,316.235,301.176,316.235z M316.235,346.353v30.118h135.529   v-30.118H316.235z M203.294,195.765h150.588c8.317,0,15.059,6.742,15.059,15.059v60.235c0,8.317-6.742,15.059-15.059,15.059   H203.294c-8.317,0-15.059-6.742-15.059-15.059v-60.235C188.235,202.507,194.977,195.765,203.294,195.765z M218.353,225.882V256   h120.471v-30.118H218.353z M105.412,75.294h120.471c8.317,0,15.059,6.742,15.059,15.059v60.235c0,8.317-6.742,15.059-15.059,15.059   H105.412c-8.317,0-15.059-6.742-15.059-15.059V90.353C90.353,82.036,97.095,75.294,105.412,75.294z M120.471,105.412v30.118h90.353   v-30.118H120.471z M30.118,451.765h466.824c8.317,0,15.059,6.742,15.059,15.059c0,8.317-6.742,15.059-15.059,15.059H15.059   C6.742,481.882,0,475.14,0,466.824V45.176c0-8.317,6.742-15.059,15.059-15.059s15.059,6.742,15.059,15.059V451.765z" />
	</g>
</svg>
