<svg id="Capa_1" enable-background="new 0 0 469.335 469.335" viewBox="0 0 469.335 469.335" width="24" xmlns="http://www.w3.org/2000/svg">
	<g>
		<path d="m271.083 327.188c-8.475-8.185-21.98-7.95-30.165.524-7.985 8.267-7.985 21.374 0 29.641l64 64c8.077 8.078 21.084 8.361 29.504.64l128-117.333c8.683-7.965 9.266-21.461 1.301-30.144s-21.461-9.266-30.144-1.301l-112.939 103.531z" />
		<path d="m21.333 427.604h170.667c11.782 0 21.333-9.551 21.333-21.333s-9.551-21.333-21.333-21.333h-147.819c10.7-73.427 73.616-127.908 147.819-128 59.427.515 108.019-47.242 108.535-106.668s-47.242-108.02-106.669-108.535c-59.426-.515-108.019 47.241-108.534 106.668-.263 30.361 12.312 59.421 34.625 80.012-72.428 29.382-119.852 99.695-119.957 177.856 0 11.782 9.551 21.333 21.333 21.333zm170.667-341.333c35.346 0 64 28.654 64 64s-28.654 64-64 64-64-28.654-64-64 28.654-64 64-64z" />
	</g>
</svg>
