<svg viewBox="0 0 32 32" width="24" xmlns="http://www.w3.org/2000/svg">
	<g clip-rule="evenodd" fill-rule="evenodd">
		<path d="m16 11c-2.2091 0-4 1.7909-4 4s1.7909 4 4 4 4-1.7909 4-4-1.7909-4-4-4zm-6 4c0-3.3137 2.6863-6 6-6s6 2.6863 6 6-2.6863 6-6 6-6-2.6863-6-6z" />
		<path d="m16.0001 20.9993c-1.4774 0-2.9259.4091-4.185 1.1819s-2.27958 1.8792-2.94837 3.1965c-.25001.4925-.8519.689-1.34435.439-.49246-.25-.68899-.8519-.43898-1.3444.83599-1.6466 2.11161-3.0296 3.6855-3.9956 1.5738-.9661 3.3845-1.4774 5.2312-1.4774s3.6573.5113 5.2312 1.4774c1.5738.966 2.8494 2.349 3.6854 3.9956.25.4925.0535 1.0944-.4389 1.3444-.4925.25-1.0944.0535-1.3444-.439-.6688-1.3173-1.6893-2.4237-2.9484-3.1965s-2.7076-1.1819-4.1849-1.1819z" />
		<path d="m25 6c-.5523 0-1 .44772-1 1s.4477 1 1 1 1-.44772 1-1-.4477-1-1-1zm-3 1c0-1.65685 1.3431-3 3-3s3 1.34315 3 3-1.3431 3-3 3-3-1.34315-3-3z" />
		<path d="m25 2.5c.5523 0 1 .44772 1 1v1.5c0 .55228-.4477 1-1 1s-1-.44772-1-1v-1.5c0-.55228.4477-1 1-1z" />
		<path d="m21.1109 4.74657c.278-.47722.8902-.63873 1.3675-.36073l1.2875.75c.4772.27799.6387.89021.3607 1.36743s-.8902.63872-1.3674.36073l-1.2875-.75c-.4773-.27799-.6388-.89021-.3608-1.36743z" />
		<path d="m24.1266 7.49657c.278.47722.1165 1.08944-.3607 1.36743l-1.2875.75c-.4773.27799-1.0895.11649-1.3675-.36073s-.1165-1.08944.3608-1.36743l1.2875-.75c.4772-.278 1.0894-.11649 1.3674.36073z" />
		<path d="m25 8c.5523 0 1 .44772 1 1v1.5c0 .5523-.4477 1-1 1s-1-.4477-1-1v-1.5c0-.55228.4477-1 1-1z" />
		<path d="m25.8734 7.49657c.278-.47722.8902-.63873 1.3674-.36073l1.2875.75c.4772.27799.6387.89021.3608 1.36743-.278.47722-.8903.63872-1.3675.36073l-1.2875-.75c-.4772-.27799-.6387-.89021-.3607-1.36743z" />
		<path d="m28.8891 4.74657c.2779.47722.1164 1.08944-.3608 1.36743l-1.2875.75c-.4772.27799-1.0894.11649-1.3674-.36073s-.1165-1.08944.3607-1.36743l1.2875-.75c.4772-.278 1.0895-.11649 1.3675.36073z" />
		<path d="m17.0165 5.04538c-.3357-.03237-.6729-.04753-1.0102-.0454l-.0063.00004v-.00002c-2.1756 0-4.3023.64514-6.11127 1.85383-1.80894 1.2087-3.21884 2.92666-4.0514 4.93667-.83256 2.01-1.0504 4.2217-.62596 6.3555s1.47208 4.0938 3.01046 5.6322 3.49837 2.586 5.63217 3.0104c2.1338.4245 4.3455.2066 6.3555-.6259 2.01-.8326 3.728-2.2425 4.9367-4.0514 1.2087-1.809 1.8538-3.9357 1.8538-6.1113v-.0049c.0022-.4368-.0244-.8732-.0795-1.3064-.0697-.5479.3179-1.0485.8658-1.1182s1.0485.3179 1.1182.8658c.0661.5195.098 1.0427.0955 1.5663-.0005 2.5703-.7629 5.0827-2.1909 7.2198-1.4284 2.1379-3.4588 3.8041-5.8342 4.788-2.3754.984-4.9893 1.2414-7.5111.7398-2.5217-.5016-4.8381-1.7397-6.65618-3.5578-1.81809-1.8181-3.05621-4.1345-3.55782-6.6562-.50161-2.5218-.24417-5.1356.73977-7.5111.98394-2.37542 2.65018-4.40575 4.78802-5.83421 2.13701-1.42787 4.64921-2.19027 7.21931-2.19089" />
	</g>
</svg>
