<svg enable-background="new 0 0 144.083 144" viewBox="0 0 144.083 144" width="24" xmlns="http://www.w3.org/2000/svg">
	<path d="m99.448 77.053c-3.564 0-6.943.814-9.959 2.267-3.512-2.625-7.437-4.721-11.66-6.167 8.399-4.839 14.07-13.903 14.07-24.273 0-15.439-12.561-28-27.999-28-15.439 0-28 12.561-28 28 0 10.448 5.756 19.571 14.26 24.383-16.607 5.822-28.559 21.694-28.559 40.326h6c0-20.242 16.396-36.709 36.549-36.709 7.38 0 14.248 2.215 19.998 6.009-4.741 4.223-7.735 10.367-7.735 17.2 0 12.701 10.334 23.033 23.035 23.033s23.033-10.332 23.033-23.033-10.332-23.036-23.033-23.036zm-57.548-28.174c0-12.131 9.869-22 22-22 12.13 0 21.999 9.869 21.999 22s-9.869 22-21.999 22c-12.131 0-22-9.869-22-22zm57.548 68.242c-9.393 0-17.035-7.641-17.035-17.033s7.643-17.035 17.035-17.035 17.033 7.643 17.033 17.035-7.641 17.033-17.033 17.033z" />
	<path d="m102.448 89.082h-6v14.248l8.549 8.549 4.242-4.242-6.791-6.791z" />
</svg>
