<?xml version="1.0" standalone="no"?>
<!DOCTYPE svg PUBLIC "-//W3C//DTD SVG 20010904//EN"
 "http://www.w3.org/TR/2001/REC-SVG-20010904/DTD/svg10.dtd">
<svg version="1.0" xmlns="http://www.w3.org/2000/svg"
 width="440.000000pt" height="440.000000pt" viewBox="0 0 440.000000 440.000000"
 preserveAspectRatio="xMidYMid meet">
<metadata>
Created by potrace 1.14, written by Peter Selinger 2001-2017
</metadata>
<g transform="translate(0.000000,440.000000) scale(0.100000,-0.100000)"
fill="#000000" stroke="none">
<path d="M1107 4394 c-3 -4 -19 -7 -34 -9 -15 -1 -35 -5 -43 -8 -8 -3 -53 -15
-99 -28 -47 -12 -137 -49 -201 -80 -262 -129 -465 -330 -593 -584 -33 -67 -92
-221 -101 -268 -36 -171 -35 -146 -35 -1217 0 -675 4 -1063 10 -1095 6 -27 13
-63 16 -79 2 -16 18 -70 34 -120 74 -228 205 -427 384 -585 62 -54 169 -131
183 -131 6 0 12 -4 14 -9 10 -27 305 -143 402 -158 17 -3 51 -9 76 -13 25 -5
511 -9 1080 -9 1132 0 1095 -2 1289 60 459 145 792 517 890 994 18 84 19 160
20 1160 1 930 -1 1077 -14 1120 -9 27 -17 59 -19 70 -11 60 -58 190 -97 268
-185 368 -504 614 -914 706 -87 20 -124 20 -1166 20 -592 1 -1079 -2 -1082 -5z"/>
</g>
</svg>
